<?xml version="1.0" standalone="no"?>
<!DOCTYPE svg PUBLIC "-//W3C//DTD SVG 20010904//EN"
 "http://www.w3.org/TR/2001/REC-SVG-20010904/DTD/svg10.dtd">
<svg version="1.0" xmlns="http://www.w3.org/2000/svg"
 width="2208.000000pt" height="218.000000pt" viewBox="0 0 2208.000000 218.000000"
 preserveAspectRatio="xMidYMid meet">

<g transform="translate(0.000000,218.000000) scale(0.100000,-0.100000)"
fill="#000000" stroke="none">
<path d="M6002 2076 c-467 -89 -749 -412 -692 -791 21 -139 85 -287 149 -349
30 -29 31 -29 31 -8 0 13 -12 80 -26 150 -61 296 -3 488 187 621 146 103 313
146 533 139 169 -6 229 -23 428 -124 192 -98 314 -181 618 -423 170 -135 319
-240 470 -331 74 -44 134 -83 133 -87 -2 -10 -166 -103 -181 -103 -21 0 -288
141 -400 211 -57 35 -158 104 -225 152 -174 126 -197 141 -203 134 -13 -12 49
-99 133 -188 104 -109 244 -223 393 -321 75 -48 106 -74 97 -79 -26 -15 -244
-78 -357 -103 -226 -50 -561 -86 -800 -86 -261 0 -629 64 -925 161 -150 49
-344 138 -399 182 l-29 24 26 34 c38 50 66 122 78 200 16 103 -7 202 -81 357
-32 67 -62 122 -67 121 -4 0 -42 -38 -83 -84 -193 -215 -234 -384 -146 -596 5
-12 -13 -25 -81 -57 -165 -76 -480 -155 -728 -181 -579 -62 -1584 -25 -2330
85 -617 91 -1072 228 -1332 401 -48 32 -94 62 -100 66 -29 18 -10 -15 38 -67
208 -228 748 -430 1483 -556 754 -129 1756 -176 2316 -109 307 36 665 140 832
240 l36 22 39 -30 c194 -151 581 -279 1058 -350 163 -24 523 -24 725 1 309 37
588 105 833 203 l138 55 162 -73 c324 -144 675 -241 1012 -279 118 -13 428
-13 535 1 419 52 726 221 873 479 59 106 106 301 91 390 -16 106 -22 103 -58
-35 -67 -259 -203 -425 -438 -535 -188 -88 -378 -123 -673 -123 -282 0 -487
26 -796 104 -157 39 -373 109 -473 153 l-49 21 77 58 77 58 127 -54 c214 -92
411 -150 625 -183 152 -24 420 -22 567 4 406 73 717 288 865 597 54 114 82
225 56 225 -5 0 -48 -51 -94 -113 -168 -223 -346 -353 -593 -430 -249 -79
-583 -76 -909 8 -178 46 -452 153 -443 173 2 4 15 30 29 57 35 67 79 215 64
215 -2 0 -24 -39 -50 -88 -25 -48 -61 -105 -78 -126 l-33 -38 -93 51 c-206
115 -321 195 -739 512 -285 217 -541 357 -772 421 -97 27 -349 34 -458 14z
m-1140 -888 c8 -82 -28 -196 -54 -170 -19 19 -11 115 12 165 12 26 26 47 30
47 4 0 10 -19 12 -42z"/>
<path d="M15711 2079 c-150 -25 -449 -160 -647 -292 -61 -40 -199 -141 -305
-224 -242 -187 -384 -287 -520 -368 -101 -60 -203 -115 -213 -115 -9 0 -97
141 -123 197 -18 39 -28 52 -31 40 -6 -27 35 -154 69 -215 l30 -53 -58 -25
c-297 -132 -542 -192 -823 -201 -326 -11 -572 53 -794 207 -90 62 -220 195
-300 308 -33 45 -63 82 -68 82 -15 0 -8 -70 13 -133 88 -263 319 -490 618
-608 436 -172 972 -131 1523 117 47 21 83 32 91 27 37 -24 146 -107 144 -110
-12 -11 -269 -102 -396 -139 -323 -94 -605 -137 -906 -137 -215 -1 -311 9
-474 49 -350 86 -570 285 -646 584 -36 142 -36 143 -47 132 -19 -19 -22 -153
-4 -239 51 -250 201 -435 461 -566 73 -36 224 -89 310 -107 192 -42 513 -53
749 -25 342 40 711 146 1022 295 l121 57 44 -22 c121 -61 397 -148 604 -190
301 -61 681 -88 915 -66 465 45 926 181 1162 344 l67 46 83 -44 c192 -101 504
-182 853 -222 118 -13 241 -17 570 -17 504 0 839 20 1305 79 855 110 1485 303
1788 548 58 47 127 125 118 134 -2 2 -39 -21 -83 -51 -396 -273 -1163 -442
-2348 -518 -264 -16 -1030 -16 -1220 0 -300 27 -618 95 -804 173 -140 58 -138
55 -111 125 65 174 17 342 -154 535 -45 52 -86 94 -91 93 -19 -1 -116 -206
-137 -287 -35 -139 -13 -272 62 -382 l30 -44 -58 -36 c-259 -163 -796 -305
-1221 -322 -245 -9 -591 23 -868 82 -131 27 -373 101 -373 113 1 4 35 28 78
54 174 105 383 281 485 409 65 81 85 119 64 119 -7 0 -55 -32 -107 -71 -176
-132 -387 -265 -551 -349 l-163 -83 -71 37 c-38 20 -81 45 -95 55 l-24 19 33
19 c176 96 368 229 646 448 288 227 457 335 663 425 118 51 215 70 354 70 302
0 557 -126 653 -324 62 -128 67 -249 19 -474 -28 -134 -27 -122 -9 -122 37 0
123 158 156 288 22 85 25 222 8 304 -16 76 -70 189 -123 256 -120 153 -327
264 -570 307 -96 16 -287 18 -375 4z m1574 -920 c22 -60 19 -149 -5 -149 -4 0
-17 22 -29 49 -22 51 -26 94 -15 150 6 30 7 31 21 12 7 -11 20 -39 28 -62z"/>
<path d="M10858 1253 c7 -3 16 -2 19 1 4 3 -2 6 -13 5 -11 0 -14 -3 -6 -6z"/>
<path d="M11228 1253 c7 -3 16 -2 19 1 4 3 -2 6 -13 5 -11 0 -14 -3 -6 -6z"/>
<path d="M10713 1226 c-351 -96 -467 -344 -256 -548 140 -136 377 -208 648
-195 437 20 732 273 610 523 -44 89 -133 154 -282 203 -113 37 -199 52 -103
18 191 -69 310 -180 310 -291 0 -111 -124 -210 -335 -267 -120 -33 -383 -33
-510 -1 -159 40 -279 113 -322 196 -19 37 -21 113 -3 147 46 85 151 164 281
209 99 35 79 38 -38 6z"/>
<path d="M4514 430 c-287 -146 -660 -211 -1214 -211 -381 0 -648 21 -1158 91
-326 46 -359 39 -126 -25 557 -153 1294 -205 1809 -129 334 49 624 154 758
275 28 26 50 49 47 51 -3 2 -55 -22 -116 -52z"/>
<path d="M17466 475 c10 -25 131 -110 218 -153 383 -189 1045 -250 1746 -161
277 35 528 85 705 142 142 45 94 45 -215 3 -486 -67 -750 -87 -1125 -87 -580
0 -1002 79 -1273 240 -61 36 -63 36 -56 16z"/>
</g>
</svg>
