<?xml version="1.0" standalone="no"?>
<!DOCTYPE svg PUBLIC "-//W3C//DTD SVG 20010904//EN"
 "http://www.w3.org/TR/2001/REC-SVG-20010904/DTD/svg10.dtd">
<svg version="1.0" xmlns="http://www.w3.org/2000/svg"
 width="640.000000pt" height="535.000000pt" viewBox="0 0 640.000000 535.000000"
 preserveAspectRatio="xMidYMid meet">
<metadata>
Created by potrace 1.16, written by Peter Selinger 2001-2019
</metadata>
<g transform="translate(0.000000,535.000000) scale(0.100000,-0.100000)"
fill="#000000" stroke="none">
<path d="M0 2675 l0 -2675 3200 0 3200 0 0 2675 0 2675 -3200 0 -3200 0 0
-2675z m4253 2601 c38 -16 62 -42 70 -76 9 -36 -28 -107 -72 -135 -53 -36
-307 -95 -405 -95 -32 0 -37 2 -26 15 6 7 33 17 58 21 64 9 167 41 222 69 51
26 126 96 135 126 7 21 -18 69 -35 69 -6 0 -10 5 -10 10 0 14 25 12 63 -4z
m-1281 -31 c35 -8 110 -33 168 -56 174 -68 534 -181 545 -171 2 3 2 15 -1 27
-5 19 -1 23 28 29 18 3 50 15 71 26 28 15 37 17 37 6 0 -11 -47 -142 -75 -210
-8 -19 -8 -19 15 -3 25 17 95 23 117 9 52 -33 23 -185 -62 -317 -49 -77 -91
-93 -157 -59 -22 12 -33 13 -38 4 -8 -13 -138 -22 -145 -9 -3 4 3 10 14 14 21
6 64 105 136 308 25 71 45 129 45 131 0 2 -21 7 -47 10 -27 4 -119 23 -207 43
-87 19 -162 31 -166 26 -9 -10 -164 -402 -200 -508 -16 -44 -35 -97 -44 -117
-9 -21 -16 -42 -16 -48 0 -14 67 -40 105 -40 65 0 72 -15 10 -20 l-60 -5 37
-28 36 -28 139 65 c217 101 347 132 451 107 63 -16 106 -57 97 -94 -10 -39
-67 -100 -122 -129 -69 -38 -181 -61 -303 -62 -88 -1 -116 3 -173 23 -66 24
-67 25 -43 38 21 11 36 10 93 -3 47 -11 101 -15 173 -12 90 3 113 7 162 31
111 54 131 148 36 171 -64 15 -254 -45 -468 -147 -52 -25 -144 -60 -205 -79
-95 -28 -125 -33 -215 -33 -95 0 -111 3 -162 28 -31 15 -69 42 -83 58 -25 31
-34 69 -15 69 6 0 10 -4 10 -10 0 -5 16 -25 36 -44 51 -50 108 -66 228 -66 86
1 116 6 201 33 l100 33 -50 34 c-67 46 -157 141 -235 250 -36 49 -68 89 -71
89 -3 1 -13 -14 -21 -33 -12 -24 -14 -36 -5 -45 18 -18 3 -22 -84 -19 l-84 3
31 17 c31 17 50 56 160 330 l19 47 45 -6 c25 -3 46 -6 47 -7 1 -1 -13 -39 -31
-84 -18 -45 -31 -82 -29 -82 3 0 34 25 69 56 48 43 63 61 59 75 -6 17 0 19 49
19 31 0 56 -4 56 -8 0 -5 -21 -23 -47 -40 -27 -18 -74 -56 -107 -85 l-58 -53
53 -82 c30 -45 57 -82 60 -82 7 0 69 145 118 275 16 44 48 127 70 185 38 102
39 106 21 121 -38 33 -160 64 -252 64 -77 0 -89 -3 -111 -23 -14 -13 -27 -32
-30 -42 -7 -25 29 -100 48 -100 18 0 21 40 3 58 -9 9 -7 13 8 18 10 3 41 14
68 25 27 10 55 19 62 19 14 0 15 3 -25 -99 l-22 -54 42 6 c22 3 51 15 64 27
15 14 25 18 30 10 18 -29 -94 -90 -164 -90 -92 0 -192 72 -207 149 -8 38 10
92 41 121 59 55 201 75 327 45z m-432 -115 c0 -5 -21 -10 -47 -10 -84 0 -98
-16 -192 -216 -96 -206 -209 -480 -213 -521 -4 -34 28 -53 89 -53 23 0 45 -4
48 -10 4 -7 -80 -10 -245 -10 -139 0 -249 4 -246 9 3 4 25 11 48 13 63 7 119
38 142 77 10 18 50 106 87 195 37 88 94 220 127 291 32 72 62 140 66 152 10
32 -32 73 -76 73 -18 0 -40 5 -48 10 -10 6 65 10 223 10 151 0 237 -4 237 -10z
m929 -227 c14 -11 36 -39 49 -64 19 -36 22 -53 17 -99 -12 -109 -71 -186 -164
-214 -137 -41 -231 67 -195 225 12 54 22 73 57 107 23 23 60 48 82 56 50 19
119 14 154 -11z m936 -4 c-6 -18 -5 -18 37 1 52 24 77 25 106 4 47 -33 15
-121 -59 -160 -42 -21 -54 -8 -24 27 33 40 20 72 -28 67 -27 -2 -37 -11 -60
-53 -43 -79 -81 -209 -68 -233 19 -36 13 -40 -60 -41 -83 -1 -96 4 -75 28 23
25 63 128 91 232 23 86 23 89 4 89 -36 0 -19 18 29 30 26 6 58 17 72 25 30 16
43 10 35 -16z m-1945 6 c0 -11 5 -12 26 -5 14 6 32 10 40 10 23 0 64 -46 64
-71 0 -13 -22 -82 -50 -156 -60 -161 -69 -206 -46 -232 13 -14 14 -21 6 -26
-14 -8 -86 40 -106 70 -14 21 -18 6 68 242 24 66 30 95 22 103 -16 16 -43 1
-61 -33 -36 -70 -94 -243 -88 -265 8 -31 -11 -36 -97 -25 -68 9 -71 10 -45 21
15 6 27 16 27 22 0 9 51 129 101 240 14 29 17 46 10 48 -23 8 -9 24 42 47 61
28 87 31 87 10z m1733 -16 c25 -31 23 -114 -6 -164 -25 -44 -81 -81 -139 -90
-32 -6 -38 -11 -38 -31 0 -57 80 -48 133 16 36 42 44 33 19 -24 -34 -76 -136
-109 -218 -70 -62 30 -62 118 2 251 34 72 80 121 126 135 38 12 102 -1 121
-23z m-182 -458 c16 -13 23 -29 23 -54 0 -49 -33 -82 -95 -97 -31 -8 -56 -21
-69 -37 -23 -30 -27 -51 -5 -33 9 8 27 10 47 5 18 -3 45 -7 61 -7 15 -1 27 -4
27 -7 0 -20 -30 -31 -83 -31 -32 0 -67 -5 -79 -11 -28 -15 -31 -7 -16 42 14
47 73 113 126 141 50 26 38 78 -17 78 -24 -1 -25 -1 -8 -15 24 -17 18 -49 -9
-53 -27 -4 -47 21 -39 48 14 45 95 64 136 31z m209 -1 c43 -43 9 -188 -57
-240 -52 -41 -133 -17 -133 39 0 69 51 165 106 202 37 24 59 24 84 -1z m194
-1 c54 -43 15 -129 -69 -150 -24 -6 -55 -23 -69 -38 l-27 -28 53 -1 c102 -2
108 -3 98 -23 -8 -13 -26 -18 -77 -21 -38 -2 -76 -8 -85 -12 -27 -12 -23 24 7
84 20 39 37 57 79 80 30 17 57 37 60 45 12 33 -26 71 -59 58 -15 -5 -15 -8 5
-23 31 -24 20 -53 -17 -48 -40 4 -44 48 -7 77 34 27 74 27 108 0z m216 -6 c38
-49 17 -141 -51 -218 -25 -29 -38 -35 -69 -35 -50 0 -70 21 -70 73 0 90 85
205 152 207 9 0 26 -12 38 -27z"/>
<path d="M3741 4833 c-23 -20 -40 -56 -66 -131 -19 -56 -35 -107 -35 -112 0
-5 9 -14 21 -20 35 -19 63 10 104 107 61 145 49 223 -24 156z"/>
<path d="M3331 4853 c-63 -77 -99 -226 -66 -276 36 -55 81 -47 123 22 59 95
85 249 48 277 -35 25 -72 17 -105 -23z"/>
<path d="M4149 4419 c-9 -4 -26 -30 -37 -57 -45 -104 -36 -201 16 -173 34 18
55 70 60 146 5 76 -7 102 -39 84z"/>
<path d="M4548 4413 c-31 -35 -51 -88 -56 -148 -3 -49 -1 -63 13 -75 43 -35
110 115 89 199 -11 41 -25 48 -46 24z"/>
</g>
</svg>
